<svg width="70" height="60" fill="none" xmlns="http://www.w3.org/2000/svg"><path d="M68.738 11.112l-9.341 5.579-4.212-2.676-1.105-5.658 9.377-5.341S62.065-1.388 55.23.454l-6.54 1.483s-5.398 2.473-5.452 8.675c0 0 .342 6.622-4.706 11.28l-3.539 3.614-3.53-3.614c-5.047-4.649-4.706-11.28-4.706-11.28-.063-6.202-5.452-8.675-5.452-8.675L14.768.454c-6.835-1.85-8.236 2.553-8.236 2.553l9.367 5.342-1.086 5.666-4.222 2.675-9.332-5.578c-2.317 1.78-.727 5.403-.727 5.403l3.35 5.64c2.964 4.377 8.479 3.93 8.479 3.93 4.49-.018 10.059 4.701 10.059 4.701l3.898 3.597L9.352 51.698h.009c-1.608 1.579-1.24 4.482.826 6.509 2.066 2.026 5.057 2.377 6.664.807l18.152-16.658 18.143 16.658c1.617 1.578 4.59 1.228 6.646-.807 2.066-2.027 2.443-4.939.835-6.509h.018L43.67 34.374l3.907-3.596s5.56-4.728 10.033-4.702c0 0 5.541.447 8.478-3.93l3.377-5.64c.01.01 1.59-3.614-.727-5.394z" fill="#C3102F"/></svg>