<svg width="80" height="60" fill="none" xmlns="http://www.w3.org/2000/svg"><path d="M13.328 39.773c-3.473 0-6.728 1.916-8.494 5.002a10.305 10.305 0 00-1.363 5.11C3.471 55.462 7.893 60 13.328 60s9.857-4.538 9.857-10.115c0-1.318-.248-2.607-.737-3.831-1.526-3.816-5.105-6.282-9.12-6.282zm62.187-6.143c-2.828-2.854-6.565-4.426-10.521-4.426-8.274 0-15.006 6.908-15.006 15.397 0 1.7.285 3.404.848 5.062 2.098 6.182 7.788 10.335 14.158 10.335C73.268 59.998 80 53.091 80 44.6c0-4.153-1.593-8.05-4.485-10.97z" fill="#C3102F"/><path d="M64.994 27.84c4.283 0 8.325 1.694 11.397 4.765 1.19-1.398 2.502-1.355 2.502-1.355v-6.02h-6.977l-4.652-2.998V2.272C67.264.227 64.496 0 64.496 0H43.342c-2.325 0-2.768 1.705-2.768 1.705l-3.212 19.318h-3.37V8.295l-.72-.625h-.26V4.105a.526.526 0 00-.519-.533.525.525 0 00-.519.533V7.67h-.261l-.72.625v10.682h-.942l-.886 3.068-20.682 5.88c-3.656 1.747-3.738 6.904-3.738 6.904H2.21c-2.035 0-2.2 1.406-2.2 1.406v3.409c-.167 4.517 1.785 4.815 1.785 4.815h1.709c.064-.124.113-.254.183-.376 2.006-3.5 5.699-5.675 9.64-5.675 4.557 0 8.619 2.797 10.35 7.129.034.085.057.172.09.258H32.6v4.091h16.914a17.128 17.128 0 01-.853-5.285c-.001-9.242 7.326-16.76 16.333-16.76zM42.705 4.744h14.12c2.492 0 2.41 3.153 2.41 3.153v12.188H40.211l2.493-15.34z" fill="#C3102F"/></svg>