<svg width="100" height="80" fill="none" xmlns="http://www.w3.org/2000/svg"><path fill-rule="evenodd" clip-rule="evenodd" d="M25.697 29.49c14.193 0 25.699 11.307 25.699 25.255C51.396 68.693 39.89 80 25.697 80 11.506 80 0 68.693 0 54.745 0 40.797 11.505 29.49 25.697 29.49z" fill="#E18797" fill-opacity=".7"/><path fill-rule="evenodd" clip-rule="evenodd" d="M15.411 27.599V0L53.72 7.638l.029 24.837H73.75v-9.508l5.15-5.057 1.414 1.39-4.561 4.485v8.69h10.664c4.586 0 8.336 3.687 8.336 8.192v16.404c-7.648-2.937-16.348 1.264-18.543 9.15H52.76c5.156-11.737 1.824-25.529-8.222-33.746h2.545V13.013L22.077 8.1v17.902a29.679 29.679 0 00-6.666 1.597z" fill="#E18797" fill-opacity=".7"/><path fill-rule="evenodd" clip-rule="evenodd" d="M89.673 59.7C95.377 59.7 100 64.243 100 69.85c0 5.604-4.623 10.149-10.327 10.149s-10.327-4.545-10.327-10.15S83.97 59.7 89.673 59.7z" fill="#E18797" fill-opacity=".7"/></svg>