<svg width="16" height="17" fill="none" xmlns="http://www.w3.org/2000/svg"><path d="M13.364.898H2.319c-1.247 0-2.197.95-2.197 2.197V14.14c0 1.247.95 2.197 2.197 2.197h11.045c1.247 0 2.197-.95 2.197-2.197V3.095c0-1.246-.95-2.197-2.197-2.197zM7.842 13.25c2.553 0 4.631-2.019 4.631-4.453 0-.416-.059-.89-.178-1.247h1.307v6.294a.595.595 0 01-.594.594H2.676a.595.595 0 01-.594-.594V7.49h1.366a4.52 4.52 0 00-.179 1.247c-.059 2.493 2.02 4.512 4.573 4.512zm0-1.78c-1.663 0-2.97-1.307-2.97-2.91 0-1.604 1.307-2.91 2.97-2.91 1.662 0 2.969 1.306 2.969 2.91 0 1.662-1.307 2.91-2.97 2.91zm5.7-6.355a.659.659 0 01-.653.654h-1.663a.659.659 0 01-.653-.654V3.511c0-.356.297-.653.653-.653h1.663c.356 0 .653.297.653.653v1.603z" fill="#fff"/></svg>