<svg width="92" height="72" fill="none" xmlns="http://www.w3.org/2000/svg"><path opacity=".36" fill-rule="evenodd" clip-rule="evenodd" d="M89.264 72.001a525.64 525.64 0 011.484-8.857c1.554-8.93 1.962-11.273-.924-11.273H79.107v-33.5c4.812-1.08 8.53-5.186 8.53-10.373V2.162c0-1.297-.875-2.161-2.187-2.161H68.39c-2.36 0-2.309 2.083-2.224 5.632.018.729.037 1.518.037 2.365 0 5.187 3.718 9.293 8.53 10.374v33.283c-7.637 0-11.15-.703-12.392.662-1.426 1.566.14 5.856 1.894 17.06-.875 0-1.531 0-2.406.216-4.593-7.132-14.217-10.158-23.184-9.51V41.066c19.247-1.73 24.933-25.07 18.81-25.07-3.5 0-6.78.864-9.843 2.16-.656-4.97-2.843-9.509-6.56-13.183-2.623-2.59-3.717-3.834-4.782-3.81-1.067.025-2.106 1.322-4.624 3.81-3.718 3.674-5.905 8.213-6.56 13.184-3.063-1.297-6.343-2.162-9.843-2.162-6.124 0-.437 23.126 18.81 25.07v19.668c-3.281.865-6.343 2.161-8.75 4.107C14.926 63.352 5.167 66.466.085 72h7.58c3.91-2.082 8.998-3.164 13.703-3.056A15.412 15.412 0 0019.607 72h4.872c.628-.97 1.517-1.998 2.793-3.056 12.467-7.997 24.934-4.106 29.964 1.729-1.19.361-2.34.798-3.42 1.327H77.52c-2.567-1.312-5.602-2.165-8.912-2.408l-2.187-13.616h8.31c0 .966-.019 1.856-.036 2.666-.085 3.904-.13 5.98 2.224 5.98 1.312 0 2.187-.865 2.187-2.162v-6.484h8.092l-2.405 15.778a5.553 5.553 0 01-.042.246h4.513zM70.578 4.323v3.675c0 8.212 12.686 8.212 12.686 0V4.323H70.577zm-31.713 32.42c1.094-8.43 7.874-15.13 16.403-16.21-1.093 8.645-7.873 15.345-16.403 16.21zM36.458 6.7l-1.53 1.513c-3.5 3.458-5.469 7.78-5.469 12.751 2.844 2.161 5.468 5.187 7 8.645 1.53-3.458 3.936-6.484 6.998-8.645 0-7.472-4.2-11.547-6.537-13.813l-.462-.451zm-18.81 14.048c8.53 1.08 15.31 7.78 16.404 16.21-8.53-1.081-15.31-7.781-16.403-16.21z" fill="#DEDFE0"/></svg>