<svg version="1.0" xmlns="http://www.w3.org/2000/svg" width="200" height="200" viewBox="0 0 150 150"><path d="M.4 74.7l.1 45.8 73.8.2c56.8.2 73.7-.1 73.7-1s.3-.8.8.1c.5.7.9-19.4.9-44.8V29H.2l.2 45.7zM19 38.3c0-.4 2.2-.8 5-.8 2.7 0 5 .3 5 .6 0 .4 1.8.3 4-.1s4-.4 4 .1 1.1.5 2.3 0c1.3-.5 3-.5 3.7-.1.8.5 2.2.4 3.3-.2 1.1-.5 2.2-.6 2.6-.2.8 1.1 3.4 1.7 2.8.7-.3-.5 1.7-.8 4.4-.8s4.9.3 4.9.6c0 .7 3.8.4 6.3-.6.9-.4 1.7-.3 1.7.3 0 1 3.4.8 6.4-.4 1.2-.4 1.7-.4 1.3.2-.6 1.1 3.7 1 6.6-.1.9-.4 1.7-.3 1.7.3 0 1 3.4.8 6.4-.4 1.3-.5 1.7-.4 1.2.4-.4.7.2.8 2.2.2 1.6-.4 3.5-.4 4.3 0 .7.5 2 .5 2.8 0 .9-.5 2.3-.4 3.3.1s1.8.6 1.8.2c0-.4 2.2-.8 5-.8 2.7 0 5 .3 5 .7 0 .4 1.1.4 2.3-.1 1.3-.5 3-.5 3.7-.1.8.5 2.1.5 2.9 0 .9-.5 2.3-.4 3.3.1s1.8.6 1.8.2c0-.4 2.2-.8 5-.8 4.3 0 5 .3 5.1 2 .6 8.3.3 70-.3 71.6-.6 1.5-1.2 1.8-2.1 1.2-1.8-1.4-5.9-1.4-5 0 .5.9.3.9-.8.1-2-1.5-6.1-1.6-5.2-.1.5.9.3.9-.8.1-2-1.5-6.1-1.6-5.2-.1.5.9.3.9-.8.1-1.8-1.4-5.2-1.4-6.1 0-.6.8-.8.8-.8 0 0-.7-2.8-1.1-8.2-.9-4.6 0-8.9-.4-9.7-.9-1.2-.9-1.3-.8-.6.3.6 1.1.4 1.3-.7.8-.9-.3-2.1 0-2.8.6-1 .9-1.1.9-.6 0 .8-1.5-3.3-1.4-5.3.1-1.1.8-1.3.8-.8 0 .4-.7-.3-1.2-1.8-1.2-1.4 0-2.8.5-3.1 1-.3.5-1.1.5-1.7 0-1.8-1.3-5.9-1.3-5.1 0 .5.7.2.8-.7.2-2.1-1.3-29.9-1.3-29.1 0 .4.8.1.8-.9 0-2-1.5-6.1-1.6-5.2-.1.5.9.3.9-.8.1-2-1.5-6.1-1.6-5.2-.1.5.9.3.9-.8.1-2-1.5-6.1-1.6-5.2-.1.5.9.3.9-.8.1-2-1.5-5.9-1.5-5.9-.1 0 .8-.3.8-.9-.1-.5-.9-2-1.2-3.8-.9-1.7.3-3.6.1-4.2-.3-1.4-.8-2.2-6-1-6 .5 0 .5-1 0-2.2-.4-1.3-.5-3.5 0-5 .4-1.6.4-2.8 0-2.8-.3 0-.7-.9-.7-2s.4-2 .9-2 .4-.7-.3-1.5c-1-1.2-1-1.5.1-1.5.9 0 1-.3.4-.8-.5-.4-1-4.8-1-9.7 0-5 .5-9.3 1-9.7.6-.5.6-.8-.2-.8s-.9-.9-.3-3c.5-1.7.5-2.8 0-2.5-.4.3-.7-.6-.6-2 0-1.4.4-2.5.8-2.5s.4-1-.1-2.2c-.4-1.3-.5-3.5 0-5 .4-1.6.5-2.8.1-2.8s-.7-2-.7-4.4c0-4.1.2-4.3 2.9-4.4 1.5 0 3-.3 3.3-.6.3-.3 1.4-.1 2.4.5 1.1.5 1.9.6 1.9.2z"/><path d="M47 45.3c0 .5-.4.6-.9.2-1.6-.9-1.7 2.9-.1 4.2 1.3 1 1.5 4.8 1.5 25.6 0 16.1-.3 24.5-1 24.4-.5-.1-1.1.9-1.3 2.3-.3 2.4-.1 2.5 6 2.4 10.7-.2 10.6-.2 8.2-4.9-.7-1.2-1.1-10.5-1-24.3.1-14.2-.3-22.2-.9-22.2-.7 0-.7-.3 0-.8.9-.6 1-1.6.6-5.9C58 45 47 44 47 45.3z"/><path d="M18.3 48.7c-1.5 1.2-1.5 1.4.3 3.4 1.7 1.9 1.9 3.9 2 22.7.1 19.4-.6 26.2-2.8 26.2-.5 0-.8.8-.8 1.8 0 1.5 1.1 1.7 8.7 1.7 9.5 0 10.5-.7 7.6-5.1-1.4-2.1-1.8-4.8-1.8-11.2-.1-8.2 0-8.3 2.2-7.9 1.3.2 2 0 1.6-.6-.3-.5 0-.8.8-.5 1.3.4 7.3-4.1 6.4-5-.2-.2.2-1.1 1-1.9.9-.9 1.3-2.4.9-3.9-.3-1.3-.2-2.4.4-2.4.5 0 1.3-.7 1.6-1.6.3-.9.2-1.2-.4-.9-.7.4-.9-.3-.6-1.9.3-1.5 0-2.6-.6-2.6s-.9-.3-.5-.6c.8-.8-1.8-5.9-4.3-8.4-1-1-2.1-1.6-2.4-1.2-.3.3-.6.1-.6-.4 0-1.4-16.7-1.1-18.7.3zM33.5 56c-.3.5-.2 1 .4 1 .5 0 .8.9.6 2-.2 1.1.1 2 .7 2 .7 0 .6.6-.2 1.5-1 1.2-1 1.5.1 1.5 1.2 0 1.2.2.1.9-.8.4-1.3 1.1-1.3 1.5.4 3.2-.1 5.6-1.3 5.6-1.1 0-1.3-1.7-1.1-8.3.3-9.3.2-8.7 1.6-8.7.5 0 .7.4.4 1zm36.3 7.6c-.4.3-1.2.6-2 .8-4.1.6-5.3 2.4-5.4 8.4-.1 5.1.1 6.1 1.7 6.5 2 .5 3.7-1.6 4.4-5.5.7-3.2 2.3-4.5 3.8-2.9 1 1.1.9 1.2-.3.6s-1.3-.5-.2.6c1.5 1.6 1.6 4.9.1 4.9-.5 0-.7.4-.4 1 .3.6-.5 1-1.9 1s-2.7.4-3.1 1c-.3.5-1.2.7-2 .4-.9-.4-1.3.1-1.1 1.3.2 1-.4 2.5-1.3 3.3-2.1 1.9-2.2 13.5-.1 16.7 1.4 2.1 2 2.4 5.3 2.7.6.1 1.5.5 1.9 1.1.5.6.8.6.8-.1 0-.8 2.3-1.1 7-1 3.9.2 7-.1 7-.6s.6-.6 1.3-.1c.6.4 5.5.8 10.7.8 8.7.1 12.5-.9 11.3-2.8-.2-.4.5-.7 1.7-.7s1.9.4 1.6.9c-.5.8 1.5 2.1 3 2 .4 0 1.1.5 1.5 1.3.5.7.9.8.9.3 0-.6 2.9-1 7.3-1 3.9.1 7.8-.1 8.5-.3 1.5-.5 1.5-3.2-.1-5.3-.8-1.1-1.2-5.9-1.1-15.3 0-11.8-.2-13.9-1.8-15.6-1-1-1.8-2.4-1.8-3 0-.6-.5-.8-1-.5-.6.4-1.7.2-2.5-.5-1-.9-1.9-.9-3.6 0-1.6.9-2 .9-1.4 0 .5-.9.1-.9-1.6.1-1.3.7-2.6 1.2-2.9 1.2-1.8 0-3.9 1.1-3.4 1.8.3.5 0 1.9-.7 3.1-.8 1.6-.9 2.3-.1 2.6.7.2.8 1.1.2 2.7-.7 2-.6 2.7.9 3.4 1 .6 2.1.7 2.5.4.3-.3.6-.3.6.1s-1.2 1.8-2.6 3.1c-1.5 1.4-2.3 2.5-1.9 2.5.4 0 .2.7-.5 1.5-.8 1-1.7 1.2-2.2.7-1-1-4.7-.5-4.9.7-.1.3-.2 1.7-.3 3.1-.4 4.1-2.1 7.6-3.1 6-.5-.8-.2-1.8.9-2.6 1.3-.9 1.4-1.3.4-1.7-.9-.4-1-.6-.1-.6.7-.1 1-.8.7-1.6-.4-.8-.1-2.2.6-3 .7-.8.9-1.5.5-1.5s-.2-.7.5-1.5c.6-.8.9-1.8.6-2.4-.3-.5-.1-1.1.5-1.3.6-.2 1.2-1.5 1.2-3 .1-1.4.5-2.4 1-2.1.4.2.7-.7.7-2.1 0-1.3.7-3.2 1.6-4 .8-.9 1.1-1.6.5-1.6-.5 0-.8-.8-.6-1.9.3-1.7-.3-1.9-5.6-1.7-3.2.1-5.9-.2-5.9-.7 0-.6-.5-.6-1.2-.1s-2.6.9-4.3.9c-3.9-.1-4.4.8-3.5 5.6.4 2.2.4 4.1 0 4.4-.4.2-.5 1.8-.2 3.5.4 2.9 2.4 4 3.7 2 .8-1.3 2.5-1.3 2.5.1 0 .5-.5.7-1.2.3-.8-.5-.9 0-.6 1.4.4 1.2.2 2.5-.3 2.8-.5.3-.9 1.3-.9 2.2 0 .9-.6 2.8-1.3 4.2-.8 1.4-1.3 3.6-1.2 4.8.1 1.4-.4 2.2-1.4 2.2-1.4 0-1.4.2-.1 1.1 1.2.9 1.2 1-.3.5-1-.3-2.1-.6-2.3-.6-.3 0-.4-4.5-.3-9.9.1-5.4-.2-10.4-.5-11-.4-.6-.2-1.1.4-1.1.7 0 .8-.6 0-1.9-.7-1.4-.6-2.1.3-2.4.8-.3.7-1-.7-2.6-1.1-1.1-1.5-2.1-1-2.1.8 0-3.7-3.5-4.6-3.5-.3 0-1.1-.4-1.7-.8-.7-.4-2.2-.3-3.4.4-1.5.8-1.9.8-1.5 0 .8-1.2.3-1.5-.6-.5zm25.3 8.8c-.6.7-.8 1.6-.4 1.9.3.4.1.7-.6.7-.8 0-1.1.6-.7 1.6.3.8.2 1.2-.3.9-1.4-.8-.9-4.4.7-5 .7-.3 1-1 .6-1.6-.4-.8-.3-.9.5-.5.8.6.9 1.2.2 2zm24.4.6c-.2 1.1.2 2 .8 2 .7 0 .4.6-.5 1.4-1 .7-1.5 1.6-1.1 1.9.3.4-.3.7-1.5.7-2.2 0-3.1-2.4-1.3-3.4.5-.3.7-1.5.4-2.6-.4-1.5 0-2 1.5-2s2 .5 1.7 2zM72.8 91.1c-.2 5.8-1.4 5.6-1.7-.2-.1-3.3.2-4.9.8-4.4.6.3 1 2.4.9 4.6zm47.1-1.5c-.9 1.1-.8 1.4.2 1.5 1.1 0 1.1.2.1.6-1 .4-1 .8-.1 1.9 1.5 1.9.2 1.8-1.7-.1-1.2-1.2-1.2-1.5-.2-1.5s.9-.3-.2-1c-1.2-.8-1.2-1 .3-1.6.9-.3 1.4-1.1 1-1.7-.3-.6-.1-.7.6-.3.9.6.9 1.1 0 2.2zm-11.2 10c-.3.3-1.2.4-1.9.1-.8-.3-.5-.6.6-.6 1.1-.1 1.7.2 1.3.5z"/></svg>