<svg width="50" height="45" fill="none" xmlns="http://www.w3.org/2000/svg"><path d="M44.565 20.86v3.292h5.292a4.392 4.392 0 00-1.546-2.372 4.32 4.32 0 00-2.66-.92h-1.087z" fill="#C3102F"/><path d="M43.479 26.347c-.288 0-.565-.116-.769-.322a1.102 1.102 0 01-.318-.775v-4.39c-13.552 0-11.824.165-12.02-.384L24.384 4.402a2.18 2.18 0 001.468-.81 2.222 2.222 0 00-.33-3.103 2.172 2.172 0 00-1.606-.476H2.18a2.16 2.16 0 00-1.309.46 2.196 2.196 0 00-.768 1.164 2.208 2.208 0 00.991 2.457v18.961c0 .291.115.57.319.776.204.206.48.321.768.321 0 .143 0 .165.163 0a1.081 1.081 0 00.88-.724c10.293-7.648 24.247 2.919 19.944 14.988h2.423c.66-2.216.814-4.555.453-6.84a15.446 15.446 0 00-2.54-6.36 15.269 15.269 0 00-5.028-4.608 15.11 15.11 0 00-6.514-1.942V4.402H22.08l6.108 16.458h-5.706a17.574 17.574 0 015.14 8.013 17.718 17.718 0 01.229 9.543h3.673c0-2.328.916-4.56 2.547-6.206a8.653 8.653 0 016.147-2.572c2.306 0 4.518.925 6.148 2.571a8.82 8.82 0 012.547 6.207H50v-12.07h-6.521zM9.788 18.666a15.12 15.12 0 00-6.521 2.194V4.402h6.52v14.264zm23.91 10.973h-2.174a1.08 1.08 0 01-.768-.322 1.103 1.103 0 010-1.552c.203-.205.48-.321.768-.321h2.174c.288 0 .564.116.768.321a1.103 1.103 0 010 1.552 1.08 1.08 0 01-.768.322zm0-4.39h-2.174c-.288 0-.565-.115-.768-.32a1.103 1.103 0 010-1.553c.203-.205.48-.321.768-.321h2.174c.288 0 .564.116.768.321a1.103 1.103 0 010 1.552 1.08 1.08 0 01-.768.322z" fill="#C3102F"/><path d="M42.391 7.693h-1.087c0-.873.344-1.71.955-2.327a3.245 3.245 0 012.306-.964c.288 0 .565-.116.768-.322a1.103 1.103 0 000-1.552 1.082 1.082 0 00-.768-.321 5.408 5.408 0 00-3.843 1.607 5.513 5.513 0 00-1.591 3.88h-1.087v10.972h4.347V7.693zM40.218 37.32c-.289 0-.565.115-.769.32a1.103 1.103 0 000 1.553 1.082 1.082 0 001.537 0 1.103 1.103 0 000-1.552 1.082 1.082 0 00-.768-.322z" fill="#C3102F"/><path d="M40.217 31.833c-1.29 0-2.55.386-3.623 1.11a6.57 6.57 0 00-2.401 2.954 6.642 6.642 0 00-.371 3.804 6.603 6.603 0 001.784 3.37 6.502 6.502 0 003.339 1.803 6.462 6.462 0 003.767-.375 6.534 6.534 0 002.927-2.425 6.629 6.629 0 00-.81-8.313 6.49 6.49 0 00-4.612-1.928zm0 9.875a3.239 3.239 0 01-1.811-.554 3.286 3.286 0 01-1.201-1.478 3.32 3.32 0 01.707-3.587 3.232 3.232 0 013.553-.714c.596.25 1.105.671 1.463 1.213a3.315 3.315 0 01-.405 4.156 3.245 3.245 0 01-2.306.964zm-29.343-5.486c1.2 0 2.173-.983 2.173-2.194a2.184 2.184 0 00-2.173-2.195c-1.2 0-2.174.983-2.174 2.195 0 1.212.973 2.194 2.174 2.194z" fill="#C3102F"/><path d="M10.874 23.055A10.79 10.79 0 005.307 24.6a10.927 10.927 0 00-3.998 4.206 11.059 11.059 0 00.465 11.229 10.902 10.902 0 004.33 3.855 10.779 10.779 0 0011.093-.943 10.953 10.953 0 003.632-4.53 11.067 11.067 0 00-.867-10.397 10.908 10.908 0 00-3.922-3.643 10.785 10.785 0 00-5.166-1.322zm0 15.361c-.86 0-1.7-.257-2.416-.74a4.38 4.38 0 01-1.6-1.97 4.428 4.428 0 01-.248-2.535 4.402 4.402 0 011.19-2.247 4.335 4.335 0 012.226-1.201 4.31 4.31 0 012.511.25 4.356 4.356 0 011.951 1.616 4.419 4.419 0 01-.54 5.542 4.326 4.326 0 01-3.074 1.285z" fill="#C3102F"/></svg>