<svg width="50" height="57" fill="none" xmlns="http://www.w3.org/2000/svg"><path d="M16.378 34.775h1.673c1.672 0 2.999-1.384 2.999-2.998V20.704c0-1.672-1.384-2.999-2.999-2.999h-1.672c-1.673 0-3 1.384-3 2.999v11.015c-.057 1.73 1.327 3.056 3 3.056zm17.302-17.07h-1.673c-1.672 0-2.999 1.384-2.999 2.999v11.015c0 1.672 1.384 2.999 3 2.999h1.672c1.672 0 2.998-1.384 2.998-3V20.705a2.978 2.978 0 00-2.998-2.999z" fill="#C3102F"/><path d="M14.245 16.955h5.363l2.999 2.999c.115.115.346.23.519.23a.705.705 0 00.519-.23.731.731 0 000-1.038l-.346-.346h3.46l-.346.346a.731.731 0 000 1.038c.116.115.346.23.52.23a.704.704 0 00.518-.23l2.999-2.999h5.363a.701.701 0 00.692-.692c0-.346-.346-.692-.692-.692h-3.806V5.882h1.269a.701.701 0 00.692-.692c0-.346-.288-.75-.692-.75H22.088V.693A.701.701 0 0021.396 0c-.346 0-.692.346-.692.692v3.69H16.84a.701.701 0 00-.692.693c0 .346.346.692.692.692h1.269v9.689h-3.807a.701.701 0 00-.692.692c0 .346.231.807.635.807zm5.248-11.073h11.072v9.689h-.461a.704.704 0 00-.519.23l-1.384 1.385h-6.344l-1.442-1.442c-.115-.115-.346-.23-.519-.23h-.461V5.881h.058zM1.96 41.292a.701.701 0 00.693-.692v-2.768h4.325V40.6c0 .404.346.692.692.692s.692-.346.692-.692v-2.768h4.325V40.6c0 .404.346.692.692.692s.692-.346.692-.692v-2.768h4.326V40.6c0 .404.346.692.692.692s.692-.346.692-.692v-2.768h4.325V40.6c0 .404.346.692.692.692s.692-.346.692-.692v-2.768h4.325V40.6c0 .404.346.692.692.692s.692-.346.692-.692v-2.768h4.326V40.6c0 .404.346.692.692.692s.692-.346.692-.692v-2.768h4.325V40.6c0 .404.346.692.692.692s.692-.346.692-.692v-2.768h4.325V40.6c0 .404.346.692.692.692s.692-.346.692-.692v-3.46a.701.701 0 00-.692-.692h-19.78L25.49 31.43v-7.612a.701.701 0 00-.692-.692c-.346 0-.692.346-.692.692v7.612l-2.365 5.018H1.961a.701.701 0 00-.692.692v3.46c0 .404.288.692.692.692zm22.838-8.016l1.442 3.114h-2.941l1.499-3.114zm-9.342 13.667c0-1.269-.52-2.48-1.442-3.402a.73.73 0 00-1.038 0 .731.731 0 000 1.038c.634.634.98 1.499.98 2.364 0 .923-.346 1.73-.98 2.364-.923.923-1.442 2.134-1.442 3.403 0 1.269.52 2.48 1.442 3.403.115.115.346.23.519.23a.704.704 0 00.519-.23.731.731 0 000-1.038 3.365 3.365 0 01-.98-2.365c0-.923.346-1.73.98-2.364.923-.923 1.442-2.134 1.442-3.403zm5.767 0c0-1.269-.52-2.48-1.442-3.402a.73.73 0 00-1.038 0 .731.731 0 000 1.038c.634.634.98 1.499.98 2.364 0 .923-.346 1.73-.98 2.364-.923.923-1.442 2.134-1.442 3.403 0 1.269.52 2.48 1.442 3.403.115.115.346.23.52.23a.704.704 0 00.518-.23.731.731 0 000-1.038 3.365 3.365 0 01-.98-2.365c0-.923.346-1.73.98-2.364.923-.923 1.442-2.134 1.442-3.403zm-11.534 0c0-1.269-.52-2.48-1.442-3.402a.73.73 0 00-1.038 0 .73.73 0 000 1.038c.634.634.98 1.499.98 2.364 0 .923-.346 1.73-.98 2.364-.923.923-1.442 2.134-1.442 3.403 0 1.269.52 2.48 1.442 3.403.115.115.346.23.519.23a.705.705 0 00.519-.23.731.731 0 000-1.038 3.365 3.365 0 01-.98-2.365c0-.923.346-1.73.98-2.364.923-.923 1.442-2.134 1.442-3.403zm17.301 0c0-1.269-.52-2.48-1.442-3.402a.73.73 0 00-1.038 0 .731.731 0 000 1.038c.634.634.98 1.499.98 2.364 0 .923-.346 1.73-.98 2.364-.923.923-1.442 2.134-1.442 3.403 0 1.269.519 2.48 1.442 3.403.115.115.346.23.519.23a.704.704 0 00.519-.23.731.731 0 000-1.038 3.365 3.365 0 01-.98-2.365c0-.923.345-1.73.98-2.364.922-.923 1.441-2.134 1.441-3.403zm5.767 0c0-1.269-.52-2.48-1.442-3.402a.73.73 0 00-1.038 0 .731.731 0 000 1.038c.634.634.98 1.499.98 2.364 0 .923-.346 1.73-.98 2.364-.923.923-1.442 2.134-1.442 3.403 0 1.269.519 2.48 1.442 3.403.115.115.346.23.519.23a.705.705 0 00.519-.23.731.731 0 000-1.038 3.365 3.365 0 01-.98-2.365c0-.923.345-1.73.98-2.364.922-.923 1.442-2.134 1.442-3.403zm11.533 0c0-1.269-.518-2.48-1.441-3.402a.73.73 0 00-1.038 0 .73.73 0 000 1.038c.634.634.98 1.499.98 2.364 0 .923-.346 1.73-.98 2.364-.923.923-1.442 2.134-1.442 3.403 0 1.269.52 2.48 1.442 3.403.115.115.346.23.519.23a.705.705 0 00.519-.23.731.731 0 000-1.038 3.365 3.365 0 01-.98-2.365c0-.923.346-1.73.98-2.364.923-.923 1.442-2.134 1.442-3.403zm-5.766 0c0-1.269-.52-2.48-1.442-3.402a.73.73 0 00-1.038 0 .731.731 0 000 1.038c.634.634.98 1.499.98 2.364 0 .923-.346 1.73-.98 2.364-.923.923-1.442 2.134-1.442 3.403 0 1.269.52 2.48 1.442 3.403.115.115.346.23.519.23a.705.705 0 00.519-.23.731.731 0 000-1.038 3.365 3.365 0 01-.98-2.365c0-.923.346-1.73.98-2.364.923-.923 1.442-2.134 1.442-3.403zm-34.602 0c0-1.269-.52-2.48-1.442-3.402a.73.73 0 00-1.038 0 .73.73 0 000 1.038c.634.634.98 1.499.98 2.364 0 .923-.346 1.73-.98 2.364C.519 50.23 0 51.441 0 52.71c0 1.269.519 2.48 1.442 3.403.115.115.346.23.519.23a.705.705 0 00.519-.23.731.731 0 000-1.038 3.365 3.365 0 01-.98-2.365c0-.923.345-1.73.98-2.364.923-.923 1.442-2.134 1.442-3.403zm43.656 5.767c0-.923.346-1.73.98-2.364.923-.923 1.442-2.134 1.442-3.403 0-1.269-.519-2.48-1.442-3.402a.73.73 0 00-1.038 0 .73.73 0 000 1.038 3.36 3.36 0 01.98 2.364c0 .923-.345 1.73-.98 2.364-.922.923-1.441 2.134-1.441 3.403 0 1.269.519 2.48 1.441 3.403.116.115.346.23.52.23a.704.704 0 00.518-.23.73.73 0 000-1.038c-.576-.635-.98-1.5-.98-2.365z" fill="#C3102F"/></svg>