<svg width="50" height="42" fill="none" xmlns="http://www.w3.org/2000/svg"><path d="M7.372 12.136c.22.26.661.26.881 0 .705-.781 1.982-2.516 1.982-4.468 0-1.736-.969-3.254-1.674-4.122L8.077.163c-.044-.217-.352-.217-.352 0L7.152 3.46c-.704.867-1.761 2.429-1.761 4.208 0 1.952 1.277 3.687 1.981 4.468zm.44 23.296c-.616 0-1.145.477-1.145 1.127v3.558a1.13 1.13 0 001.145 1.128c.661 0 1.145-.477 1.145-1.128V36.56c0-.608-.528-1.128-1.145-1.128zM1.427 11.398c-.088 1.128-.088 2.95.88 4.381 1.102 1.649 3.127 2.386 4.14 2.69.353.087.705-.13.749-.477.132-1.041.264-3.167-.837-4.816-1.013-1.475-2.73-2.255-3.831-2.56L.326 8.232c-.132-.174-.396 0-.308.217l1.409 2.95zm7.839 1.779c-1.101 1.648-.969 3.774-.837 4.815.044.347.397.564.749.477 1.013-.26 3.039-.998 4.14-2.69.968-1.474 1.013-3.253.88-4.38l1.41-2.994c.088-.174-.177-.347-.309-.217l-2.202 2.43c-1.1.303-2.818 1.04-3.831 2.559zM1.427 19.25c-.088 1.128-.088 2.95.88 4.382 1.102 1.648 3.127 2.386 4.14 2.69.353.086.705-.13.749-.478.132-1.041.264-3.167-.837-4.815-1.013-1.475-2.73-2.256-3.831-2.56L.326 16.084c-.132-.173-.396 0-.308.217l1.409 2.95zM15.3 16.084l-2.203 2.386c-1.1.347-2.818 1.084-3.831 2.559-1.101 1.648-.969 3.774-.837 4.815.044.347.397.564.749.477 1.013-.26 3.039-.997 4.14-2.69.968-1.474 1.013-3.253.88-4.38l1.41-2.994c.088-.173-.177-.347-.309-.173zM7.196 33.696c.132-1.041.264-3.167-.837-4.815-1.013-1.476-2.73-2.256-3.831-2.56L.326 23.935c-.132-.173-.396 0-.308.217l1.409 2.993c-.088 1.128-.088 2.95.88 4.382 1.102 1.648 3.127 2.386 4.14 2.69a.62.62 0 00.749-.521zm8.104-9.761l-2.203 2.386c-1.1.347-2.818 1.085-3.831 2.56-1.101 1.648-.969 3.774-.837 4.815.044.347.397.564.749.477 1.013-.26 3.039-.998 4.14-2.69.968-1.475 1.013-3.253.88-4.381l1.41-2.993c.088-.174-.177-.347-.309-.174zm26.447-11.799c.22.26.661.26.881 0 .705-.781 1.982-2.516 1.982-4.468 0-1.736-.969-3.254-1.674-4.122L42.452.163c-.044-.217-.352-.217-.352 0l-.573 3.297c-.704.867-1.761 2.429-1.761 4.208 0 1.952 1.277 3.687 1.981 4.468zm.441 23.296c-.617 0-1.146.477-1.146 1.127v3.558a1.13 1.13 0 001.145 1.128c.661 0 1.146-.477 1.146-1.128V36.56c0-.608-.529-1.128-1.145-1.128zm-6.386-24.034c-.088 1.128-.088 2.95.88 4.381 1.102 1.649 3.127 2.386 4.14 2.69.353.087.705-.13.749-.477.132-1.041.264-3.167-.837-4.816-1.013-1.475-2.73-2.255-3.831-2.56L34.7 8.232c-.132-.174-.397 0-.308.217l1.409 2.95zm7.839 1.779c-1.101 1.648-.969 3.774-.837 4.815.044.347.397.564.749.477 1.013-.26 3.039-.998 4.14-2.69.968-1.474 1.013-3.253.88-4.38l1.41-2.994c.088-.174-.176-.347-.309-.217l-2.202 2.43c-1.1.303-2.818 1.04-3.831 2.559zm-7.839 6.073c-.088 1.128-.088 2.95.88 4.382 1.102 1.648 3.127 2.386 4.14 2.69.353.086.705-.13.749-.478.132-1.041.264-3.167-.837-4.815-1.013-1.475-2.73-2.256-3.831-2.56L34.7 16.084c-.132-.173-.397 0-.308.217l1.409 2.95zm13.872-3.166l-2.202 2.386c-1.1.347-2.818 1.084-3.831 2.559-1.101 1.648-.969 3.774-.837 4.815.044.347.397.564.749.477 1.013-.26 3.039-.997 4.14-2.69.968-1.474 1.013-3.253.88-4.38l1.41-2.994c.088-.173-.176-.347-.309-.173zm-8.103 17.612c.132-1.041.264-3.167-.837-4.815-1.013-1.476-2.73-2.256-3.831-2.56L34.7 23.935c-.132-.173-.397 0-.308.217l1.409 2.993c-.088 1.128-.088 2.95.88 4.382 1.102 1.648 3.127 2.386 4.14 2.69a.62.62 0 00.749-.521zm8.103-9.761l-2.202 2.386c-1.1.347-2.818 1.085-3.831 2.56-1.101 1.648-.969 3.774-.837 4.815.044.347.397.564.749.477 1.013-.26 3.039-.998 4.14-2.69.968-1.475 1.013-3.253.88-4.381l1.41-2.993c.088-.174-.176-.347-.309-.174zM17.708 40.974c0 .552 1.283 1.026 3.032 1.026h9.56c1.633 0 3.032-.434 3.032-1.026 0-.592-1.283-1.026-3.032-1.026h-9.56c-1.633 0-3.032.473-3.032 1.026z" fill="#C3102F"/></svg>