<svg width="45" height="50" fill="none" xmlns="http://www.w3.org/2000/svg"><path d="M8.654 45.964c0 1.983-1.14 3.536-2.596 3.536-1.456 0-2.596-1.553-2.596-3.536s1.14-3.535 2.596-3.535c1.456 0 2.596 1.553 2.596 3.535zm2.596-11.49c-1.456 0-2.596 1.552-2.596 3.535s1.14 3.536 2.596 3.536c1.456 0 2.596-1.553 2.596-3.536s-1.14-3.536-2.596-3.536zm-6.058-.885c0-1.982-1.14-3.535-2.596-3.535C1.14 30.054 0 31.607 0 33.589c0 1.983 1.14 3.536 2.596 3.536 1.456 0 2.596-1.553 2.596-3.536zm18.447-19.4a6.088 6.088 0 012.72 2.221c.056-.277.07-.562.04-.844a4.386 4.386 0 00-1.198-2.414 4.23 4.23 0 00-2.364-1.224 2.984 2.984 0 00-.335-.02 2.328 2.328 0 00-1.047.244 5.036 5.036 0 002.184 2.037zm-2.11 2.713c.63.669 1.464 1.1 2.364 1.224.472.061.952-.017 1.382-.225a5.032 5.032 0 00-2.184-2.036 6.088 6.088 0 01-2.72-2.221 2.847 2.847 0 00-.04.844c.122.92.544 1.77 1.199 2.414zm-5.087-1.875a7.18 7.18 0 011.167-3.929 6.957 6.957 0 013.107-2.604 6.788 6.788 0 014-.403 6.879 6.879 0 013.545 1.936 7.12 7.12 0 011.894 3.62 7.212 7.212 0 01-.393 4.086 7.041 7.041 0 01-2.55 3.174 6.82 6.82 0 01-3.847 1.191 6.859 6.859 0 01-4.893-2.073 7.157 7.157 0 01-2.03-4.998zm2.169-.345a6.166 6.166 0 001.695 3.47 5.944 5.944 0 003.397 1.732c.177.02.355.03.534.03a3.811 3.811 0 001.512-.28 3.88 3.88 0 001.288-.857c.015-.015.027-.033.042-.048l.007-.008a4.143 4.143 0 001.034-3.349 6.167 6.167 0 00-1.696-3.47 5.944 5.944 0 00-3.396-1.731 3.894 3.894 0 00-1.793.157 3.958 3.958 0 00-1.541.95c-.015.015-.027.032-.042.048l-.007.008c-.406.444-.71.975-.889 1.555a4.156 4.156 0 00-.145 1.794zM44.589.132a.848.848 0 00-.841-.038l-2.21 1.128v27.61l2.21 1.128a.85.85 0 00.842-.038.898.898 0 00.41-.752V.884a.898.898 0 00-.41-.751zM6.923 1.769h32.885v26.518H12.679a.853.853 0 01-.5-.162.88.88 0 01-.315-.427 4.418 4.418 0 00-1.58-2.133 4.271 4.271 0 00-2.496-.814 4.148 4.148 0 00-.865.102V1.768zm7.788 13.26a8.97 8.97 0 001.459 4.91 8.696 8.696 0 003.884 3.256 8.485 8.485 0 005 .503 8.6 8.6 0 004.43-2.42 8.9 8.9 0 002.369-4.525 9.015 9.015 0 00-.493-5.107 8.802 8.802 0 00-3.187-3.967 8.525 8.525 0 00-4.808-1.49A8.573 8.573 0 0017.25 8.78a8.946 8.946 0 00-2.537 6.247zM2.596 22.981a2.55 2.55 0 011.44.445c.427.29.76.704.956 1.188a.875.875 0 00.2.295V1.222L2.983.094a.85.85 0 00-.842.038.876.876 0 00-.3.322.899.899 0 00-.11.43v21.214c0 .235.09.46.253.625a.856.856 0 00.612.26z" fill="#C3102F"/></svg>