<svg width="20" height="21" fill="none" xmlns="http://www.w3.org/2000/svg"><path d="M15.516.578A28.138 28.138 0 005 .578c-1.531.33-3.462 2.181-3.795 3.636a20.77 20.77 0 000 8.593c.4 1.454 2.33 3.305 3.795 3.636.066 0 .133.066.133.132v4.165c0 .198.266.33.4.132l1.996-2.05s1.598-1.652 1.864-1.916c0 0 .067-.067.133-.067 1.997.067 4.06-.132 6.058-.462 1.531-.33 3.461-2.182 3.794-3.636.6-2.843.6-5.751 0-8.594-.4-1.388-2.33-3.239-3.86-3.57zm.067 12.427c-.333.661-.732 1.19-1.398 1.52l-.6.199c-.265-.066-.465-.132-.665-.198-2.13-.86-4.127-2.05-5.725-3.768A15.898 15.898 0 015 7.453c-.266-.595-.533-1.124-.732-1.72-.2-.528.133-1.057.465-1.453.333-.397.733-.661 1.199-.86.333-.198.665-.066.932.199.532.66 1.065 1.322 1.464 2.049.266.463.2.991-.266 1.322-.133.066-.2.132-.333.264-.067.066-.2.133-.266.265a.639.639 0 00-.067.595c.533 1.52 1.531 2.71 3.062 3.37.266.133.466.2.8.2.465-.067.665-.596.998-.86.332-.264.732-.264 1.131-.066.333.198.666.463 1.065.727.333.264.666.463.999.727.2.132.266.463.133.793zm-2.796-4.957c-.133 0-.067 0 0 0-.266 0-.333-.133-.4-.331 0-.132 0-.33-.066-.463a1.256 1.256 0 00-.466-.727l-.4-.198c-.199-.066-.332-.066-.532-.066-.2-.066-.266-.199-.266-.397 0-.132.2-.264.333-.264 1.065.066 1.864.66 1.997 1.917v.264c0 .132-.067.265-.2.265zm-.666-2.909c-.332-.132-.665-.264-1.065-.33-.133 0-.332-.067-.466-.067-.2 0-.332-.132-.266-.33 0-.198.133-.33.333-.265.666.067 1.265.199 1.864.463 1.198.595 1.864 1.587 2.063 2.909v.859c-.066.264-.532.33-.599 0 0-.066-.066-.198-.066-.264 0-.595-.133-1.19-.4-1.72-.4-.594-.865-.99-1.398-1.255zm3.595 3.966c-.2 0-.333-.198-.333-.396 0-.397-.066-.794-.133-1.19-.266-2.116-1.997-3.834-4.06-4.165-.333-.066-.666-.066-.932-.132-.2 0-.466 0-.533-.264-.067-.199.133-.397.333-.397h.133c2.73.066.133 0 0 0 2.796.066 5.126 1.917 5.592 4.693.066.463.133.926.133 1.455.133.198 0 .396-.2.396z" fill="#fff"/></svg>