<svg width="53" height="53" fill="none" xmlns="http://www.w3.org/2000/svg"><path d="M28.708 48.583H11.042c-4.417 0-6.625-2.208-6.625-6.625V24.292c0-4.417 2.208-6.625 6.625-6.625h11.041v24.291c0 4.417 2.209 6.625 6.625 6.625zm-6.382-39.75c-.176.663-.243 1.392-.243 2.209v6.625H11.042V13.25a4.43 4.43 0 014.416-4.417h6.868zm8.591 8.834v11.041m8.833-11.041v11.041m-2.208 8.834h-4.417a2.215 2.215 0 00-2.208 2.208v8.833h8.833V39.75a2.215 2.215 0 00-2.208-2.208zM13.25 28.708v8.834" stroke="#fff" stroke-width="3" stroke-miterlimit="10" stroke-linecap="round" stroke-linejoin="round"/><path d="M22.083 41.958V11.042c0-4.417 2.209-6.625 6.625-6.625h13.25c4.417 0 6.625 2.208 6.625 6.625v30.916c0 4.417-2.208 6.625-6.625 6.625h-13.25c-4.416 0-6.625-2.208-6.625-6.625z" stroke="#fff" stroke-width="3" stroke-miterlimit="10" stroke-linecap="round" stroke-linejoin="round"/></svg>