<svg width="54" height="54" fill="none" xmlns="http://www.w3.org/2000/svg"><path d="M19.685 43.003h-.002a4.338 4.338 0 01-4.214-3.333H5.517v-1a7.449 7.449 0 01-3.167-.702l17.335 5.035zm0 0h15s0 0 0 0a4.333 4.333 0 004.005-2.675m-19.005 2.675l19.005-2.675m10.162-.658a8.45 8.45 0 003.168-.612v6.279a3.162 3.162 0 01-3.166 3.167h0H5.516s0 0 0 0a3.169 3.169 0 01-3.167-3.167s0 0 0 0v-6.279l46.503-.388m0 1h-.001l.001-1m0 1h0v-1m0 1h-9.95m9.95-1H39.02c0 .337-.04.673-.117 1m0 0a4.323 4.323 0 01-.212.658l-.924-.382m1.136-.276l-1.136.276m0 0l.924.382m-.924-.382l.924.382m14.33-2.925c-.32.215-.654.404-1 .565l1 .61v-1.175zm-32.332.266v-4.667h13v4.667h-13z" stroke="#ED1D24" stroke-width="2"/><path d="M48.854 13.835h0-11.945l.114-1.055V9.505A4.01 4.01 0 0033.019 5.5h-11.66a4.01 4.01 0 00-4.004 4.004v.001m31.499 4.33l-32.5-4.331 1 .001m31.5 4.33A3.162 3.162 0 0152.02 17v14.17a3.162 3.162 0 01-3.166 3.166h0-9.835v-2.333s0 0 0 0a4.333 4.333 0 00-4.334-4.334s0 0 0 0H19.683a4.338 4.338 0 00-4.332 4.332v2.335H5.517s0 0 0 0A3.169 3.169 0 012.35 31.17s0 0 0 0V17.002s0 0 0 0 0 0 0 0a3.168 3.168 0 013.167-3.167s0 0 0 0h11.934l-.096-1.047m31.499 1.047l-31.5-1.047m0-3.283v3.283m0-3.283v3.283m1.334-3.284v3.278l-.11 1.053h17.209l-.098-1.048V9.503a2.672 2.672 0 00-2.669-2.67h0-11.663a2.672 2.672 0 00-2.669 2.67v.001z" stroke="#ED1D24" stroke-width="2"/></svg>