<svg width="50" height="51" fill="none" xmlns="http://www.w3.org/2000/svg"><mask id="a" fill="#fff"><path d="M15.178 44.645H1.787a.893.893 0 100 1.785H16.07a.893.893 0 000-1.785h-.893z"/></mask><path d="M.893 45.538h-2 2zm14.285-2.893H1.787v4H15.18v-4zm-13.392 0c-.768 0-1.503.305-2.046.847l2.829 2.829c-.208.207-.49.324-.783.324v-4zm-2.046.847a2.893 2.893 0 00-.847 2.046h4c0 .293-.117.575-.324.783L-.26 43.492zm-.847 2.046c0 .767.305 1.503.847 2.045l2.829-2.828c.207.207.324.489.324.783h-4zm.847 2.045a2.893 2.893 0 002.046.848v-4c.293 0 .575.116.783.324L-.26 47.583zm2.046.848H16.07v-4H1.786v4zm14.285 0c.768 0 1.503-.305 2.046-.848l-2.829-2.828c.208-.208.49-.325.783-.325v4zm2.046-.848a2.893 2.893 0 00.847-2.045h-4c0-.294.117-.576.325-.783l2.828 2.828zm.847-2.045c0-.768-.305-1.503-.847-2.046l-2.829 2.829a1.107 1.107 0 01-.324-.783h4zm-.847-2.046a2.893 2.893 0 00-2.046-.847v4c-.293 0-.575-.117-.783-.325l2.829-2.828zm-2.046-.847h-.893v4h.893v-4z" fill="#ED1D24" mask="url(#a)"/><mask id="b" fill="#fff"><path d="M.893 42.859h14.285a.893.893 0 000-1.786H.893a.893.893 0 000 1.786z"/></mask><path d="M0 41.966h-2 2zm.893 2.893h14.285v-4H.893v4zm14.285 0c.768 0 1.504-.305 2.046-.847l-2.828-2.829c.207-.207.489-.324.782-.324v4zm2.046-.847a2.893 2.893 0 00.847-2.046h-4c0-.294.117-.575.325-.783l2.828 2.829zm.847-2.046c0-.767-.304-1.503-.847-2.046l-2.828 2.829a1.107 1.107 0 01-.325-.783h4zm-.847-2.046a2.893 2.893 0 00-2.046-.847v4c-.293 0-.575-.116-.782-.324l2.828-2.829zm-2.046-.847H.893v4h14.285v-4zm-14.285 0c-.767 0-1.503.305-2.046.847l2.829 2.829c-.208.208-.49.324-.783.324v-4zm-2.046.847A2.893 2.893 0 00-2 41.966h4c0 .294-.117.575-.324.783l-2.829-2.829zM-2 41.966c0 .767.305 1.503.847 2.046l2.829-2.829c.207.208.324.49.324.783h-4zm.847 2.046a2.893 2.893 0 002.046.847v-4c.293 0 .575.117.783.324l-2.829 2.829z" fill="#ED1D24" mask="url(#b)"/><mask id="c" fill="#fff"><path d="M.893 50.002h14.285a.893.893 0 000-1.786H.893a.893.893 0 100 1.786z"/></mask><path d="M0 49.109h-2 2zm.893 2.893h14.285v-4H.893v4zm14.285 0a2.89 2.89 0 002.046-.848l-2.828-2.828c.207-.208.489-.324.782-.324v4zm2.046-.848a2.893 2.893 0 00.847-2.045h-4c0-.294.117-.575.325-.783l2.828 2.828zm.847-2.045c0-.767-.304-1.503-.847-2.046l-2.828 2.829a1.107 1.107 0 01-.325-.783h4zm-.847-2.046a2.893 2.893 0 00-2.046-.847v4c-.293 0-.575-.117-.782-.324l2.828-2.829zm-2.046-.847H.893v4h14.285v-4zm-14.285 0c-.767 0-1.503.305-2.046.847l2.829 2.829c-.208.207-.49.324-.783.324v-4zm-2.046.847A2.893 2.893 0 00-2 49.11h4c0 .294-.117.575-.324.783l-2.829-2.829zM-2 49.11c0 .767.305 1.503.847 2.045l2.829-2.828c.207.208.324.49.324.783h-4zm.847 2.045a2.893 2.893 0 002.046.848v-4c.293 0 .575.116.783.324l-2.829 2.828z" fill="#ED1D24" mask="url(#c)"/><mask id="d" fill="#fff"><path d="M50 50.002V47.45a3.564 3.564 0 00-2.552 2.552H50z"/></mask><path d="M50 50.002v2h2v-2h-2zm0-2.552h2v-2.587l-2.503.652L50 47.45zm-2.552 2.552l-1.935-.503-.651 2.503h2.586v-2zm4.552 0V47.45h-4v2.552h4zm-2.503-4.487a5.56 5.56 0 00-2.534 1.45l2.828 2.828c.197-.196.443-.337.712-.407l-1.006-3.871zm-2.534 1.45a5.56 5.56 0 00-1.45 2.534l3.87 1.006c.07-.269.212-.515.408-.712l-2.828-2.828zm.485 5.037H50v-4h-2.552v4z" fill="#ED1D24" mask="url(#d)"/><mask id="e" fill="#fff"><path d="M.893 35.716h14.285a.893.893 0 100-1.786H.893a.893.893 0 000 1.786z"/></mask><path d="M0 34.823h-2 2zm.893 2.893h14.285v-4H.893v4zm14.285 0c.768 0 1.504-.305 2.046-.847l-2.828-2.829c.207-.207.489-.324.782-.324v4zm2.046-.847a2.893 2.893 0 00.847-2.046h-4c0-.293.117-.575.325-.783l2.828 2.829zm.847-2.046c0-.767-.304-1.503-.847-2.045l-2.828 2.828a1.107 1.107 0 01-.325-.783h4zm-.847-2.045a2.893 2.893 0 00-2.046-.848v4c-.293 0-.575-.116-.782-.324l2.828-2.828zm-2.046-.848H.893v4h14.285v-4zm-14.285 0c-.767 0-1.503.305-2.046.848l2.829 2.828c-.208.208-.49.324-.783.324v-4zm-2.046.848A2.893 2.893 0 00-2 34.823h4c0 .294-.117.575-.324.783l-2.829-2.828zM-2 34.823c0 .767.305 1.503.847 2.046l2.829-2.829c.207.208.324.49.324.783h-4zm.847 2.046a2.893 2.893 0 002.046.847v-4c.293 0 .575.117.783.324l-2.829 2.829z" fill="#ED1D24" mask="url(#e)"/><mask id="f" fill="#fff"><path d="M50 36.482V33.93h-2.552A3.564 3.564 0 0050 36.482z"/></mask><path d="M50 33.93h2v-2h-2v2zm-2.552 0v-2h-2.586l.65 2.504 1.936-.504zM52 36.482V33.93h-4v2.552h4zm-2-4.552h-2.552v4H50v-4zm-4.487 2.504c.249.958.75 1.833 1.45 2.533l2.828-2.828a1.563 1.563 0 01-.407-.712l-3.871 1.007zm1.45 2.533c.7.7 1.575 1.202 2.534 1.45l1.006-3.87a1.565 1.565 0 01-.712-.408l-2.828 2.828z" fill="#ED1D24" mask="url(#f)"/><mask id="g" fill="#fff"><path d="M27.678 37.502a2.678 2.678 0 00-1.785-2.515v5.03a2.678 2.678 0 001.785-2.515z"/></mask><path d="M25.893 34.987l.666-1.885-2.666-.943v2.828h2zm0 5.03h-2v2.827l2.666-.942-.666-1.886zm3.785-2.524a4.679 4.679 0 00-.864-2.69l-3.26 2.317c.08.114.124.25.125.39l4-.017zm-.864-2.69a4.679 4.679 0 00-2.255-1.701l-1.333 3.771a.679.679 0 01.327.247l3.261-2.316zm-4.921.184v5.03h4v-5.03h-4zm2.666 6.915a4.679 4.679 0 002.255-1.702l-3.26-2.316a.678.678 0 01-.328.246l1.334 3.772zm2.255-1.702c.559-.786.86-1.726.864-2.69l-4-.017a.67.67 0 01-.125.39l3.261 2.317z" fill="#ED1D24" mask="url(#g)"/><path d="M21.727 2.145c-.198.45-.3.937-.298 1.428v3.572a.893.893 0 01-1.786 0V3.68h-.899a.78.78 0 00-.101.008m3.084-1.543l-4.69 2.806a1.782 1.782 0 01.288-1.558m4.402-1.248a3.571 3.571 0 016.548 0h-6.548zm-3.084 1.543v-.121h0a6.39 6.39 0 01.067-.886c-.264.006-.524.07-.76.19m.693.817v3.265L18 4.68h0l-.001-.003a.782.782 0 01.126-.683l-.8-.6m1.318.295a.781.781 0 00-.244.076l-.45-.894m0 0a1.792 1.792 0 00-.624.523m.625-.523l.45.894a.782.782 0 00-.275.229l-.8-.6m2.857 9.002l-1.166-4.122a1.89 1.89 0 001.52.765c.502 0 .983-.2 1.338-.555l-.688-.688.688.688c.355-.355.555-.836.555-1.338V3.57a2.543 2.543 0 01.213-1.024l.002-.003a2.572 2.572 0 014.714 0v.002c.142.323.215.672.213 1.024v3.575a1.893 1.893 0 003.232 1.338l-.68-.679.68.68c.066-.067.127-.138.182-.212l-1.166 4.123h-9.637zM32 4.683l-.643 2.274V3.688a.786.786 0 01.66.635h0a.786.786 0 01-.016.358v.002zm1.001-.541a1.785 1.785 0 00-.326-.746l-2.1 9.999 2.387-8.44c.076-.264.09-.543.04-.813z" stroke="#ED1D24" stroke-width="2"/><mask id="h" fill="#fff"><path d="M31.25 15.18h-12.5a.893.893 0 000 1.786h12.5a.892.892 0 100-1.786z"/></mask><path d="M31.25 13.18h-12.5v4h12.5v-4zm-12.5 0c-.767 0-1.503.305-2.046.848l2.829 2.828c-.208.208-.49.324-.783.324v-4zm-2.046.848a2.893 2.893 0 00-.847 2.045h4c0 .294-.116.575-.324.783l-2.829-2.828zm-.847 2.045c0 .767.305 1.503.848 2.046l2.828-2.829c.207.208.324.49.324.783h-4zm.848 2.046a2.892 2.892 0 002.045.847v-4c.294 0 .575.117.783.324l-2.829 2.829zm2.045.847h12.5v-4h-12.5v4zm12.5 0c.767 0 1.503-.305 2.045-.847l-2.828-2.829c.208-.207.49-.324.783-.324v4zm2.045-.847a2.892 2.892 0 00.848-2.046h-4c0-.293.116-.575.324-.783l2.828 2.829zm.848-2.046a2.89 2.89 0 00-.848-2.045l-2.828 2.828a1.107 1.107 0 01-.324-.783h4zm-.848-2.045a2.893 2.893 0 00-2.045-.848v4c-.294 0-.575-.116-.783-.324l2.828-2.828z" fill="#ED1D24" mask="url(#h)"/><path d="M43.857 35.716h0v-.009c-.002-.259-.01-.518-.026-.777h1a6.363 6.363 0 002.818 3.566 3.678 3.678 0 00-4.458 1.724 15.5 15.5 0 00.666-4.504zM49 39.1v.236c-.16-.157-.336-.3-.525-.426.172.07.347.134.525.19zm0 5.497v.236a6.084 6.084 0 00-.525.19 3.67 3.67 0 00.525-.426zm-1.854.977c.172-.034.34-.08.503-.138a6.363 6.363 0 00-2.818 3.566H36.81c2.706-1.973 4.813-4.613 5.993-7.656a3.67 3.67 0 00.567 2.664 3.68 3.68 0 003.776 1.564z" stroke="#ED1D24" stroke-width="2"/><mask id="i" fill="#fff"><path d="M.893 39.287h14.285a.893.893 0 000-1.785H.893a.893.893 0 000 1.785z"/></mask><path d="M0 38.395h-2 2zm.893 2.892h14.285v-4H.893v4zm14.285 0a2.89 2.89 0 002.046-.847l-2.828-2.828c.207-.208.489-.325.782-.325v4zm2.046-.847a2.893 2.893 0 00.847-2.045h-4c0-.294.117-.576.325-.783l2.828 2.828zm.847-2.045a2.89 2.89 0 00-.847-2.046l-2.828 2.828a1.107 1.107 0 01-.325-.782h4zm-.847-2.046a2.893 2.893 0 00-2.046-.847v4c-.293 0-.575-.117-.782-.325l2.828-2.828zm-2.046-.847H.893v4h14.285v-4zm-14.285 0c-.767 0-1.503.304-2.046.847l2.829 2.828c-.208.208-.49.325-.783.325v-4zm-2.046.847A2.893 2.893 0 00-2 38.395h4c0 .293-.117.575-.324.782l-2.829-2.828zM-2 38.395c0 .767.305 1.503.847 2.045l2.829-2.828c.207.207.324.489.324.783h-4zm.847 2.045a2.893 2.893 0 002.046.847v-4c.293 0 .575.117.783.325l-2.829 2.828z" fill="#ED1D24" mask="url(#i)"/><mask id="j" fill="#fff"><path d="M24.107 27.845a2.663 2.663 0 000 5.028v-5.028z"/></mask><path d="M24.107 27.845h2V25.03l-2.658.926.658 1.889zm0 5.028l-.658 1.889 2.658.926v-2.815h-2zm-.658-6.917a4.662 4.662 0 00-2.267 1.702l3.261 2.317a.662.662 0 01.322-.242l-1.316-3.777zm-2.267 1.702a4.662 4.662 0 00-.861 2.701h4a.66.66 0 01.122-.384l-3.26-2.317zm-.861 2.701c0 .968.3 1.912.861 2.7l3.261-2.316a.663.663 0 01-.122-.384h-4zm.861 2.7a4.662 4.662 0 002.267 1.703l1.316-3.777a.662.662 0 01-.322-.242l-3.26 2.317zm4.925-.186v-5.028h-4v5.028h4z" fill="#ED1D24" mask="url(#j)"/><path d="M46.321 41.966a.107.107 0 11.214 0 .107.107 0 01-.214 0zM19.535 30.36v-.002a5.473 5.473 0 013.71-5.174c.095-.233.235-.447.416-.628l.707.707-.707-.707a1.893 1.893 0 013.093.628 5.473 5.473 0 013.71 5.174v.001a1.893 1.893 0 01-3.571.875v1.14a5.465 5.465 0 01-.14 10.305 1.892 1.892 0 01-.415.626M19.535 30.36l6.803 12.945M19.535 30.36a5.473 5.473 0 003.572 5.125m-3.572-5.125l3.572 5.125m3.231 7.82a1.893 1.893 0 01-3.093-.628 5.472 5.472 0 01-3.71-5.174v-.001a1.893 1.893 0 013.572-.875m3.231 6.678l-3.231-6.678m4.571-6.268l-.785.003 1.563-2.825a4.472 4.472 0 011.008 2.822.892.892 0 11-1.786 0zm0 0h-.785v-1.884a2.68 2.68 0 01.786 1.884zm-4.571 6.268v-1.142m0 1.142v-1.142m-4.25-.658v-.004a3.678 3.678 0 00-3.679-3.678H10.73c1.498-4.544 4.908-9.124 8.554-11.393h11.431c2.477 1.536 4.796 4.07 6.513 6.958 1.773 2.981 2.843 6.234 2.843 9.006 0 7.217-6.648 13.285-15.07 13.286a16.844 16.844 0 01-6.081-1.142 3.66 3.66 0 00-.21-4.88 3.617 3.617 0 00-.32-2.8 3.637 3.637 0 00-.002-3.572 3.66 3.66 0 00.469-1.781zm4.774 3.636a1.678 1.678 0 01-.31-.964l.786 1.413a1.679 1.679 0 01-.476-.45z" stroke="#ED1D24" stroke-width="2"/></svg>