<svg width="20" height="20" fill="none" xmlns="http://www.w3.org/2000/svg"><path d="M16.811 2.955A9.47 9.47 0 0010.1.174C4.85.174.597 4.412.597 9.644c0 1.655.465 3.31 1.263 4.701l-1.33 4.9 5.05-1.324a9.716 9.716 0 004.52 1.126c5.25 0 9.502-4.239 9.502-9.47-.066-2.45-.997-4.834-2.79-6.622zm-2.126 10.066c-.2.53-1.13 1.06-1.595 1.125-.399.066-.93.066-1.462-.066-.332-.132-.797-.265-1.33-.53-2.391-.993-3.92-3.377-4.053-3.576-.132-.132-.996-1.258-.996-2.45 0-1.192.598-1.721.797-1.986.2-.265.465-.265.665-.265h.465c.133 0 .332-.066.531.397.2.464.665 1.656.731 1.722a.42.42 0 010 .397 1.36 1.36 0 01-.266.397c-.132.133-.265.332-.332.398-.133.132-.266.265-.133.463.133.265.598.994 1.33 1.656.93.795 1.66 1.06 1.926 1.192.266.132.4.066.532-.066.133-.133.598-.663.731-.928.133-.264.332-.198.532-.132.199.066 1.395.662 1.594.795.266.132.4.198.466.265.066.198.066.662-.133 1.192z" fill="#fff"/></svg>